<svg width="154" height="24" viewBox="0 0 154 24" fill="none" xmlns="http://www.w3.org/2000/svg">
<g clip-path="url(#clip0_0_57)">
<path d="M100.182 9.14371L94.5705 20.6159C94.5049 20.7503 94.3751 20.8304 94.2233 20.8304H92.6665C92.5298 20.8304 92.4126 20.7664 92.3401 20.653C92.2677 20.5392 92.2603 20.4075 92.3196 20.2867C94.282 16.2936 96.2457 12.2999 98.2054 8.30532C98.2936 8.12523 98.5077 8.04373 98.6962 8.1186L99.9794 8.62836C100.082 8.66907 100.154 8.74141 100.195 8.84266C100.234 8.94406 100.23 9.0457 100.182 9.14371H100.182ZM10.3414 12.7202L16.1338 20.2227C16.2245 20.3403 16.2389 20.4879 16.1721 20.6203C16.1056 20.7522 15.9773 20.8304 15.8272 20.8304H14.0325C13.9076 20.8304 13.8001 20.7779 13.725 20.6798L8.38288 13.7109C8.30754 13.613 8.19992 13.5603 8.07513 13.5603H5.66898C5.45701 13.5603 5.2839 13.39 5.2839 13.1813V11.7941C5.2839 11.5856 5.45701 11.4153 5.66898 11.4153H8.10342C8.23403 11.4153 8.34645 11.3573 8.42073 11.2512L13.2743 4.30902C13.3485 4.20309 13.461 4.14507 13.5917 4.14507H15.2759C15.4225 4.14507 15.5483 4.21965 15.6166 4.34739C15.6849 4.47503 15.6762 4.61928 15.5932 4.73815L10.3306 12.2768C10.2351 12.4138 10.2391 12.5878 10.3414 12.7202ZM2.9987 20.8304H1.58809C1.37597 20.8304 1.203 20.6604 1.203 20.4518V4.52394C1.203 4.31523 1.37597 4.14507 1.58809 4.14507H2.9987C3.21058 4.14507 3.38369 4.31523 3.38369 4.52394V20.4518C3.38369 20.6604 3.21058 20.8304 2.9987 20.8304ZM26.0278 9.14357L20.4162 20.6159C20.3506 20.7503 20.2209 20.8304 20.0692 20.8304H18.5122C18.3757 20.8304 18.2583 20.7664 18.1859 20.653C18.1136 20.5392 18.1062 20.4075 18.1654 20.2867C20.1278 16.2934 22.0911 12.2999 24.0511 8.30532C24.1394 8.12523 24.3536 8.04373 24.5419 8.1186L25.8249 8.62812C25.9273 8.66892 26 8.74131 26.0397 8.84257C26.0798 8.94373 26.0755 9.04546 26.0277 9.14357H26.0278ZM28.3453 4.35898L36.1653 20.2872C36.2245 20.4081 36.2172 20.5392 36.1446 20.653C36.0722 20.7669 35.9548 20.8304 35.8185 20.8304H34.2603C34.1088 20.8304 33.9792 20.7504 33.9135 20.6165L27.1549 6.83905V6.83953L25.5397 6.19806C25.4372 6.15741 25.3646 6.08478 25.3248 5.98362C25.2846 5.88213 25.2889 5.78063 25.337 5.68238L25.9852 4.35951C26.0508 4.22538 26.1804 4.14507 26.332 4.14507H27.9986C28.15 4.14507 28.2796 4.22514 28.3453 4.35903V4.35898ZM43.2068 4.14502H46.9959C47.2081 4.14502 47.3809 4.31518 47.3809 4.5239V5.91123C47.3809 6.11995 47.2081 6.28987 46.9959 6.28987H43.2068C42.9946 6.28987 42.8216 6.11995 42.8216 5.91123V4.5239C42.8216 4.31518 42.9946 4.14502 43.2068 4.14502ZM45.4482 17.4529L51.8613 4.35946C51.927 4.22533 52.0568 4.14502 52.2082 4.14502H53.743C53.8794 4.14502 53.9966 4.20853 54.0691 4.32239C54.1416 4.43581 54.1491 4.56737 54.09 4.688L46.2935 20.616C46.2279 20.7504 46.0979 20.8304 45.9463 20.8304H44.2566C44.1048 20.8304 43.9751 20.7503 43.9094 20.6158C41.3159 15.304 38.7123 9.99704 36.1126 4.688C36.0535 4.56737 36.0609 4.43581 36.1334 4.32239C36.206 4.20853 36.3231 4.14502 36.4594 4.14502H37.9943C38.1456 4.14502 38.2753 4.22533 38.3411 4.35946L44.7547 17.4529C44.8204 17.5868 44.9499 17.6673 45.1016 17.6673C45.2529 17.6673 45.3826 17.5868 45.4483 17.4529H45.4482ZM61.9007 9.14371L56.2889 20.6159C56.2231 20.7503 56.0935 20.8304 55.9416 20.8304H54.3845C54.248 20.8304 54.1307 20.7664 54.0583 20.653C53.9858 20.5392 53.9786 20.4075 54.0378 20.2867C55.9999 16.2936 57.9638 12.2999 59.9237 8.30532C60.012 8.12523 60.2262 8.04373 60.4146 8.1186L61.6978 8.62836C61.8001 8.66907 61.8729 8.74141 61.9129 8.84266C61.9527 8.94406 61.9486 9.0457 61.9006 9.14371H61.9007ZM64.2181 4.35898L72.0379 20.2872C72.0972 20.4081 72.0898 20.5392 72.0171 20.653C71.9447 20.7669 71.8273 20.8304 71.691 20.8304H70.1332C69.9817 20.8304 69.852 20.7504 69.7862 20.6165L63.0925 6.97156C63.0492 6.88343 62.9822 6.8214 62.8898 6.78499L61.4122 6.19806C61.3098 6.15741 61.2373 6.08478 61.1975 5.98362C61.1574 5.88213 61.1614 5.78063 61.2095 5.68238L61.8578 4.35951C61.9234 4.22538 62.0532 4.14507 62.2046 4.14507H63.8715C64.0228 4.14507 64.1525 4.22514 64.2181 4.35903V4.35898ZM85.8493 14.6768L89.7455 20.2367C89.8289 20.3558 89.8377 20.5003 89.7694 20.628C89.7011 20.7558 89.5752 20.8304 89.4285 20.8304H87.7213C87.591 20.8304 87.4788 20.7725 87.4046 20.6669L83.2736 14.7789C83.1995 14.6735 83.0874 14.6152 82.9568 14.6152H77.3041C77.092 14.6152 76.919 14.445 76.919 14.2365V12.849C76.919 12.6405 77.092 12.4703 77.3041 12.4703H83.1862C84.2897 12.4703 85.2463 12.2153 85.8945 11.6572C86.4654 11.1655 86.8061 10.4228 86.8061 9.39136C86.8061 8.35136 86.4653 7.60291 85.8945 7.10794C85.2469 6.54492 84.2904 6.28997 83.1862 6.28997H70.5238C70.3129 6.28997 70.1389 6.12005 70.1389 5.91133V4.52399C70.1389 4.31528 70.3118 4.14512 70.5238 4.14512H83.1862C84.9477 4.14512 86.4363 4.62396 87.4767 5.54868C88.4786 6.43851 89.057 7.72975 89.057 9.39146C89.057 10.7138 88.6903 11.7952 88.0374 12.6278C87.5249 13.2824 86.8386 13.7779 86.0189 14.1123C85.9078 14.1572 85.8311 14.2412 85.7972 14.3547C85.7631 14.4682 85.781 14.5795 85.8494 14.6769L85.8493 14.6768ZM102.5 4.35898L110.32 20.2872C110.379 20.4081 110.372 20.5392 110.299 20.653C110.227 20.7669 110.109 20.8304 109.973 20.8304H108.415C108.263 20.8304 108.134 20.7504 108.068 20.6165L101.374 6.97156C101.331 6.88343 101.264 6.8214 101.171 6.78499L99.694 6.19806C99.5914 6.15741 99.5188 6.08478 99.479 5.98362C99.4389 5.88213 99.4429 5.78063 99.4911 5.68238L100.139 4.35951C100.205 4.22538 100.335 4.14507 100.486 4.14507H102.153C102.304 4.14507 102.434 4.22514 102.5 4.35903V4.35898Z" fill="#030304"/>
<path d="M150.699 0.342707L153.775 3.36809C153.926 3.51711 154 3.69214 154 3.90276V20.0972C154 20.3077 153.926 20.4829 153.775 20.6319L150.699 23.6572C150.496 23.8681 150.357 23.9999 149.889 23.9999C149.42 23.9999 148.771 23.3612 148.771 22.9007C148.771 22.4403 148.905 22.3038 149.119 22.1035L151.842 19.425V4.57491L149.119 1.89624C148.905 1.69597 148.771 1.5595 148.771 1.09927C148.771 0.638746 149.42 0 149.889 0C150.357 0 150.496 0.131652 150.699 0.342659V0.342707ZM137.824 10.6471C136.096 10.6471 134.365 9.21506 130.567 6.35325C130.297 6.1452 130.017 6.03311 129.664 6.08842C129.423 6.1201 129.122 6.25304 128.963 6.4472C128.774 6.64876 128.658 6.91903 128.658 7.21569C128.658 7.3912 128.704 7.59171 128.794 7.74588C128.794 7.74588 134.633 16.7905 135.625 18.2648C136.309 19.2816 137.068 19.7879 137.824 19.7868C138.584 19.7879 139.34 19.2817 140.024 18.2648C141.016 16.7905 146.859 7.74588 146.859 7.74588C146.946 7.59171 146.99 7.3912 146.99 7.21569C146.99 6.91903 146.875 6.64876 146.686 6.4472C146.527 6.25309 146.228 6.1201 145.985 6.08842C145.634 6.03316 145.354 6.1452 145.085 6.35325C141.287 9.21506 139.556 10.6471 137.824 10.6471ZM124.942 23.6572L121.867 20.6319C121.715 20.4829 121.642 20.3078 121.642 20.0973V3.90281C121.642 3.69219 121.715 3.51716 121.867 3.36814L124.942 0.342755C125.146 0.131748 125.285 9.54349e-05 125.753 9.54349e-05C126.221 9.54349e-05 126.871 0.638842 126.871 1.09936C126.871 1.55965 126.737 1.69607 126.522 1.89634L123.799 4.57501V19.4251L126.522 22.1036C126.737 22.3039 126.871 22.4404 126.871 22.9008C126.871 23.3613 126.221 24 125.753 24C125.285 24 125.146 23.8682 124.942 23.6573V23.6572Z" fill="#030304"/>
</g>
<defs>
<clipPath id="clip0_0_57">
<rect width="154" height="24" fill="white"/>
</clipPath>
</defs>
</svg>
